<svg width="31" height="24" viewBox="0 0 31 24" fill="none" xmlns="http://www.w3.org/2000/svg">
<path d="M19.25 14.25L14.75 9.75" stroke="#405BE1" stroke-width="2.5" stroke-linecap="round" stroke-linejoin="round"/>
<path d="M19.25 9.75L14.75 14.25" stroke="#405BE1" stroke-width="2.5" stroke-linecap="round" stroke-linejoin="round"/>
<path d="M23 1.5H11.6C10.7002 1.5 9.81187 1.70239 9.00086 2.09218C8.18986 2.48197 7.47691 3.04918 6.9148 3.75182L3.3148 8.25182C2.46369 9.3157 2 10.6376 2 12C2 13.3624 2.46369 14.6843 3.3148 15.7482L6.9148 20.2482C7.47691 20.9508 8.18986 21.518 9.00086 21.9078C9.81187 22.2976 10.7002 22.5 11.6 22.5H23C24.5913 22.5 26.1174 21.8679 27.2426 20.7426C28.3678 19.6174 29 18.0913 29 16.5V7.5C29 5.9087 28.3678 4.38258 27.2426 3.25736C26.1174 2.13214 24.5913 1.5 23 1.5Z" stroke="#405BE1" stroke-width="2.5" stroke-linecap="round" stroke-linejoin="round"/>
</svg>
