<svg width="31" height="30" viewBox="0 0 31 30" fill="none" xmlns="http://www.w3.org/2000/svg">
<path d="M8.75 10.6201V12.8701" stroke="#405BE1" stroke-width="2.5" stroke-linecap="round" stroke-linejoin="round"/>
<path d="M22.25 10.6201V12.8701" stroke="#405BE1" stroke-width="2.5" stroke-linecap="round" stroke-linejoin="round"/>
<path d="M14 17.3955H14.75C15.578 17.3955 16.25 16.7235 16.25 15.8955V10.6455" stroke="#405BE1" stroke-width="2.5" stroke-linecap="round" stroke-linejoin="round"/>
<path d="M20.3632 21.2356C17.6782 23.9206 13.3237 23.9206 10.6387 21.2356" stroke="#405BE1" stroke-width="2.5" stroke-linecap="round" stroke-linejoin="round"/>
<path d="M8.882 1.5H5C3.3425 1.5 2 2.8425 2 4.5V8.382" stroke="#405BE1" stroke-width="2.5" stroke-linecap="round" stroke-linejoin="round"/>
<path d="M22.1182 28.4999H26.0002C27.6577 28.4999 29.0002 27.1574 29.0002 25.4999V21.6179" stroke="#405BE1" stroke-width="2.5" stroke-linecap="round" stroke-linejoin="round"/>
<path d="M2 21.6179V25.4999C2 27.1574 3.3425 28.4999 5 28.4999H8.882" stroke="#405BE1" stroke-width="2.5" stroke-linecap="round" stroke-linejoin="round"/>
<path d="M29.0002 8.382V4.5C29.0002 2.8425 27.6577 1.5 26.0002 1.5H22.1182" stroke="#405BE1" stroke-width="2.5" stroke-linecap="round" stroke-linejoin="round"/>
</svg>
