<svg width="65" height="64" viewBox="0 0 65 64" fill="none" xmlns="http://www.w3.org/2000/svg">
<path d="M19.1665 48H29.8332" stroke="white" stroke-width="2.5" stroke-linecap="round" stroke-linejoin="round"/>
<path d="M40.5 42.6667V50.6667C40.5 52.0812 39.9381 53.4377 38.9379 54.4379C37.9377 55.4381 36.5812 56 35.1667 56H13.8333C12.4188 56 11.0623 55.4381 10.0621 54.4379C9.0619 53.4377 8.5 52.0812 8.5 50.6667V13.3333C8.5 11.9188 9.0619 10.5623 10.0621 9.5621C11.0623 8.5619 12.4188 8 13.8333 8H16.5" stroke="white" stroke-width="2.5" stroke-linecap="round" stroke-linejoin="round"/>
<path d="M33.8333 29.3333V33.3307C33.8333 33.5828 33.9048 33.8298 34.0395 34.0429C34.1742 34.2561 34.3666 34.4267 34.5943 34.5349C34.822 34.6431 35.0758 34.6846 35.3261 34.6544C35.5764 34.6243 35.8131 34.5238 36.0086 34.3646L42.187 29.3333H48.5C49.9145 29.3333 51.271 28.7714 52.2712 27.7712C53.2714 26.771 53.8333 25.4145 53.8333 24V13.3333C53.8333 11.9188 53.2714 10.5623 52.2712 9.5621C51.271 8.5619 49.9145 8 48.5 8H29.8333C28.4188 8 27.0623 8.5619 26.0621 9.5621C25.0619 10.5623 24.5 11.9188 24.5 13.3333V24C24.5 25.4145 25.0619 26.771 26.0621 27.7712C27.0623 28.7714 28.4188 29.3333 29.8333 29.3333H33.8333Z" stroke="white" stroke-width="2.5" stroke-linecap="round" stroke-linejoin="round"/>
</svg>
